<svg width="30" height="30" id="addons" data-name="addons" xmlns="http://www.w3.org/2000/svg" viewBox="0 0 29.9987 30"><defs><style>.cls-1{fill-rule:evenodd;}</style></defs><title>addons</title><path class="cls-1" d="M23.7056,8.4469l-2.0928,1-.431-.9021,2.0929-1Zm5.7324,3.8207L26.4987,15.207V23h3a.5.5,0,0,1,.5.5v4a.5.5,0,0,1-.5.5H15.4993a.5.5,0,0,1-.5-.5V26h-2.5V25h2.5V23.5a.5.5,0,0,1,.5-.5h10V16.207l-5.1463,5.1465a.5007.5007,0,0,1-.2554.1367l-2.5.5a.5.5,0,0,1-.5883-.5884l.5-2.5a.5013.5013,0,0,1,.1367-.2556l7.8533-7.8535V6h-3a2.0022,2.0022,0,0,1-2-2V1H5.5a1.001,1.001,0,0,0-1,1V16.5h-1V2a2.0024,2.0024,0,0,1,2-2H20.9989a.5.5,0,0,1,.3536.1466l5,5a.5.5,0,0,1,.1464.3536v4.293l.2323-.2324a1.9142,1.9142,0,0,1,2.707,2.7071ZM21.4989,1.707V4a1.0013,1.0013,0,0,0,1,1h2.2928ZM24.9988,25V24h-1v1h-1V24h-1v1h-1V24h-1v1h-1V24h-1v1h-1V24h-1v3H28.9986V24h-1v1h-1V24h-1v1Zm-6.8623-4.1374.8484-.17-.6787-.6787Zm8.3622-9.6554L18.7061,19l1.2929,1.2928L27.7915,12.5ZM28.0844,10a.9074.9074,0,0,0-.6464.2677l-.2322.2322,1.2929,1.2929.2321-.2322A.9141.9141,0,0,0,28.0844,10ZM8.805,16.4451l-2.0928,1-.431-.9019,2.0928-1ZM5.5,2h1V3h-1Zm3,0V3h-1V2ZM8.3741,9.4542l-2.0928-1,.4311-.902,2.0928,1ZM9.5,2h1V3h-1Zm5,1.5h1V6h-1Zm1,18h-1V19h1Zm-5.5-6.5V9.5a.493.493,0,0,1,.2973-.4562l-.0008-.0006,4.5-2a.5009.5009,0,0,1,.4063,0l4.5,2v.0006A.4927.4927,0,0,1,19.999,9.5V15a.5.5,0,0,1-.2968.4569l-4.5,2v0a.4978.4978,0,0,1-.4062,0l-4.5-2A.5.5,0,0,1,9.9994,15Zm5.5,1.2306,3.5-1.5557V10.2692l-3.5,1.5556Zm-.5-5.2778L18.2679,9.5,14.9992,8.0469,11.7306,9.5Zm-4,3.7221,3.5,1.5557V11.8248l-3.5-1.5556Zm4,14.8251a.5.5,0,0,1-.5.5H.5a.5.5,0,0,1-.5-.5v-14a.5.5,0,0,1,.8536-.3536l13.9993,14A.5.5,0,0,1,14.9993,29.5ZM1,16.7069V29H13.2923Zm2.8534,5.4394,4,4A.5.5,0,0,1,7.5,27h-4a.5.5,0,0,1-.5-.5v-4a.5.5,0,0,1,.8536-.3535ZM4,26H6.2925L4,23.7069Z" transform="translate(0.0001 0.0002)"/></svg>