<svg width="30" height="30" id="create" data-name="create" xmlns="http://www.w3.org/2000/svg" viewBox="0 0 30 29.9998"><defs><style>.cls-1{fill-rule:evenodd;}</style></defs><title>create</title><path class="cls-1" d="M3.5693,17.69H26.4305a2.6907,2.6907,0,0,0,0-5.3814H3.5693a2.6907,2.6907,0,0,0,0,5.3814Zm16.0148-3.8018H17.3585V16.112h2.2256Zm-2.6641-.88h3.1027a.44.44,0,0,1,.44.44V16.55a.4389.4389,0,0,1-.44.44H16.92a.44.44,0,0,1-.44-.44V13.4478a.4409.4409,0,0,1,.44-.44Zm-7.6785.88a.44.44,0,1,1,0-.88h5.6871a.44.44,0,0,1,0,.88Zm0,3.1026a.4394.4394,0,1,1,0-.8787h5.6871a.4394.4394,0,1,1,0,.8787Zm0-1.5514a.4393.4393,0,1,1,0-.8786h5.6871a.4393.4393,0,1,1,0,.8786Zm17.189-2.0678a1.63,1.63,0,1,1-1.151.4767,1.6159,1.6159,0,0,1,1.151-.4767Zm.53,1.0978a.7458.7458,0,1,0,.221.53.7487.7487,0,0,0-.221-.53ZM3.5693,13.3715a1.6272,1.6272,0,1,1-1.1512.4767,1.6228,1.6228,0,0,1,1.1512-.4767Zm.5315,1.0978a.75.75,0,1,0,.2193.53.7486.7486,0,0,0-.2193-.53ZM2.5362,18.4157V29.12H4.6041V18.5686H3.5693A3.5433,3.5433,0,0,1,2.5362,18.4157Zm2.9464.1529v10.992a.438.438,0,0,1-.4384.4385H2.0961a.44.44,0,0,1-.44-.4385V18.01a3.6725,3.6725,0,0,1-.6079-.49,3.5688,3.5688,0,0,1,.6079-5.531V6.6829L.7888,4.4257a.4363.4363,0,0,1,.0367-.3869L3.1973.2087A.4389.4389,0,0,1,3.8.0657a.4344.4344,0,0,1,.1462.15L6.3149,4.0387a.44.44,0,0,1,.03.4052L5.4826,6.6828V11.43H17.091L10.517,4.856a.4372.4372,0,0,1,0-.6212L14.6228.1288a.4373.4373,0,0,1,.6213,0L26.5468,11.4313a3.57,3.57,0,0,1,.0713,7.1322l-9.5288,9.5288a.4262.4262,0,0,1-.1993.1147l-4.9828,1.7389a.5915.5915,0,0,1-.7956-.7956c.58-1.6609,1.1644-3.32,1.739-4.9827a.5324.5324,0,0,1,.1146-.1993l5.4-5.4H5.4826ZM3.5693,11.43H4.604V7.0466H2.5362v4.536A3.54,3.54,0,0,1,3.5693,11.43ZM12.47,5.5667l.716-.7158a.4392.4392,0,0,1,.6211.6211l-.7159.7158,1.02,1.0216,1.7423-1.744a.44.44,0,1,1,.6229.6229L14.7343,7.8306l1.02,1.02.7159-.7159a.44.44,0,1,1,.6212.6228l-.7159.7159,1.0216,1.02,1.7423-1.7422a.4393.4393,0,1,1,.6212.6212L18.018,11.1142l.3156.3156h6.9692L14.9335,1.0607,11.4489,4.5454Zm3.1624,20.4494,7.4461-7.4475h-1.181l-6.8547,6.8563Zm-2.1742-.9317-.641,1.8387L14.1346,28.24l1.8386-.641q-1.2556-1.2585-2.5147-2.5148Zm.9635-.2807,6.2334-6.2351H19.6073l-5.71,5.7119Zm9.9008-6.2351-8.0689,8.0688.5248.5232,8.59-8.592ZM12.1115,28.946l1.1012-.3836-.7175-.7176M4.01,1.9791V4.27a.4394.4394,0,0,1-.8787,0V1.9791L1.6842,4.3144l.7108,1.852H4.7437l.7125-1.852Z" transform="translate(0.0001 0.0007)"/></svg>