<svg width="27" height="30" id="design" data-name="design" xmlns="http://www.w3.org/2000/svg" viewBox="0 0 27.0002 30"><defs><style>.cls-1{fill-rule:evenodd;}</style></defs><title>design</title><path class="cls-1" d="M25.7406,13.82,9.263,27.938A2.9887,2.9887,0,0,1,6.1233,30H3.34A3.094,3.094,0,0,1,0,26.6831V3.3166A3.0936,3.0936,0,0,1,3.34,0H6.1233a3.0939,3.0939,0,0,1,3.34,3.3167V4.378L10.17,2.8468a3.1058,3.1058,0,0,1,4.42-1.6584l2.5273,1.183A3.75,3.75,0,0,1,18.56,3.477a3.0037,3.0037,0,0,1,.2,3.2836l-.4843,1.0447L19.5392,6.7a3.2914,3.2914,0,0,1,2.41-.9065,3.4855,3.4855,0,0,1,2.3158,1.26l1.82,2.1227a3.4359,3.4359,0,0,1,.9129,2.4324A3.2561,3.2561,0,0,1,25.7406,13.82ZM8.35,3.3166A2.0133,2.0133,0,0,0,6.1233,1.1055H3.34A2.014,2.014,0,0,0,1.1133,3.3166V26.6831A2.0134,2.0134,0,0,0,3.34,28.8943H6.1233A2.0108,2.0108,0,0,0,8.35,26.6831Zm9.3411.8016a2.643,2.643,0,0,0-1.0188-.7739L14.1284,2.1889a2.0371,2.0371,0,0,0-2.9449,1.1056l-1.72,3.72v3.72a.5588.5588,0,0,1,.2784.0387l3.2566,1.476a.5513.5513,0,0,1,.2756.7324.5586.5586,0,0,1-.7376.2737l-3.073-1.3931v4.0354l1.542.6855a.5511.5511,0,0,1,.2756.7324.5582.5582,0,0,1-.7375.2736L9.48,17.1032V24.29l2.7834-6.0806,5.5-11.94A1.9509,1.9509,0,0,0,17.6911,4.1182ZM25.234,9.8727,23.4081,7.7666a2.3524,2.3524,0,0,0-1.5309-.8734,2.2355,2.2355,0,0,0-1.5977.6413l-3.1062,2.6589-1.57,3.4051a.5567.5567,0,0,1,.2226.1493l2.3493,2.7032a.5619.5619,0,0,1-.0613.796.5713.5713,0,0,1-.8016-.0609L15.1192,14.66l-1.7145,3.7147,1.1133,1.2106a.5716.5716,0,0,1,.0389.0433.55.55,0,0,1-.0858.777.5591.5591,0,0,1-.7825-.0852l-.7683-.8733-2.967,6.44L25.0169,12.9794a2.2089,2.2089,0,0,0,.8629-1.4483A2.4016,2.4016,0,0,0,25.234,9.8727Zm-4.2474,4.1626-2.3381-2.6921a.55.55,0,0,1,.0539-.7554.56.56,0,0,1,.7867.0312l2.3381,2.6921a.55.55,0,0,1-.054.7554A.5593.5593,0,0,1,20.9866,14.0353Zm-6.4408-5.13L11.2893,7.4239a.5513.5513,0,0,1-.2756-.7324.5584.5584,0,0,1,.7377-.2737l3.2565,1.4814a.5516.5516,0,0,1,.2756.7325A.5584.5584,0,0,1,14.5458,8.9053ZM6.5186,21.4261h-3.58a.5529.5529,0,1,1,0-1.1057h3.58a.5529.5529,0,1,1,0,1.1057Zm0-4.8148h-3.58a.5528.5528,0,1,1,0-1.1056h3.58a.5528.5528,0,1,1,0,1.1056Zm0-4.7872h-3.58a.5528.5528,0,1,1,0-1.1055h3.58a.5528.5528,0,1,1,0,1.1055Zm0-4.7706h-3.58a.5528.5528,0,1,1,0-1.1055h3.58a.5528.5528,0,1,1,0,1.1055Zm-1.7869,16.7a1.9237,1.9237,0,1,1-1.9372,1.9237A1.93,1.93,0,0,1,4.7317,23.7534Zm0,2.7639v-.0221a.8072.8072,0,1,0,0,.0221Z" transform="translate(0.0001 0.0001)"/></svg>