<svg id="_лой_1" data-name="‘лой_1" xmlns="http://www.w3.org/2000/svg" viewBox="0 0 2017.7392 1397.7439"><defs><style>.cls-1{fill:#f99746;}.cls-2{fill:#aec3ff;}.cls-3{fill:#fff7f0;}.cls-4{fill:#f9dec7;}.cls-5{fill:#ffb27d;}.cls-6{fill:#233862;}.cls-7{fill:#2b478b;}.cls-8{fill:#ed975d;}.cls-9{fill:#95b3ef;}.cls-10{fill:#ed7d2b;}.cls-11{fill:#fff;}.cls-12{fill:#1b3770;}.cls-13{fill:#e8c2a3;}.cls-14{fill:#f78248;}.cls-15{fill:#699dee;}.cls-16{fill:#4b87dd;}.cls-17{fill:#f9ddbf;}.cls-18{fill:#1f4075;}.cls-19{fill:#ef7e29;}.cls-20{fill:#ed985f;}.cls-21{fill:#2c3a64;}.cls-22{fill:#ea642f;}.cls-23{fill:#ef873a;}.cls-24{fill:#cde0fb;}.cls-25{fill:#a6c7ed;}.cls-26{fill:#e3f0ff;}.cls-27{fill:#1c3d72;}.cls-28{fill:#fca56b;}.cls-29{fill:#163560;}.cls-30{fill:#1f4d84;}.cls-31{opacity:0.5;}.cls-32{fill:#b3cff9;}</style></defs><title>education</title><path class="cls-1" d="M1126.14,1417.6323H316.5364A31.8894,31.8894,0,0,1,284.6907,1385.7V304.0649a31.8854,31.8854,0,0,1,33.04-31.91l840.2549,38.75V1385.7A31.889,31.889,0,0,1,1126.14,1417.6323Z" transform="translate(-13.5423 -21.9432)"/><path class="cls-1" d="M1189.8314,1417.6323h809.6044a31.8894,31.8894,0,0,0,31.8457-31.9326V304.0649a31.8856,31.8856,0,0,0-33.04-31.91l-840.2558,38.75V1385.7A31.8894,31.8894,0,0,0,1189.8314,1417.6323Z" transform="translate(-13.5423 -21.9432)"/><path class="cls-2" d="M345.9964,319.07l-26.25,21.3256a16.0261,16.0261,0,0,0-5.8716,12.4415V1401.4633a15.71,15.71,0,0,0,15.5273,15.8867h65.3565A15.7353,15.7353,0,0,0,410.2576,1400.5Z" transform="translate(-13.5423 -21.9432)"/><path class="cls-2" d="M1971.5784,319.07l26.249,21.3256a16.025,16.025,0,0,1,5.8721,12.4415V1401.4633a15.71,15.71,0,0,1-15.5273,15.8867h-65.3565a15.7346,15.7346,0,0,1-15.498-16.8505Z" transform="translate(-13.5423 -21.9432)"/><path class="cls-3" d="M1128.0237,1417.6323H366.2879c-16.5479,0-29.9629-13.8125-29.9629-30.8516V341.7578c0-17.4927,14.11-31.4864,31.0864-30.83L1032.304,336.623c70.1621,2.7114,125.6817,62.0654,125.6817,134.3608v915.7969C1157.9857,1403.82,1144.5711,1417.6323,1128.0237,1417.6323Z" transform="translate(-13.5423 -21.9432)"/><path class="cls-3" d="M1185.4837,1417.6323h766.665c15.1866,0,27.4981-12.6758,27.4981-28.3135V339.123c0-16.0537-12.9492-28.8965-28.5293-28.2944l-681.56,26.34c-62.2851,2.4072-111.5722,55.0972-111.5722,119.2764v932.874C1157.9857,1404.9565,1170.2972,1417.6323,1185.4837,1417.6323Z" transform="translate(-13.5423 -21.9432)"/><rect class="cls-4" x="1142.3779" y="496.9654" width="4.1319" height="678.5557"/><path class="cls-5" d="M1556.6487,451.1679a5.4659,5.4659,0,0,1,.9336,5.853.0506.0506,0,0,1-.0146.0289c-1.4385,3.8862-6.1279,8.2055-11.5694,12.5127-.6953.5532-1.3144,1.0566-1.8535,1.5229-.1416.1221-.2832.2446-.416.3677-.11.0947-.2158.1943-.32.2851-5.0791,4.6162-3.1875,5.6953-12.32,15.07-10.4131,10.6827-17.5313,10.8262-19.5488,9.8321-1.7071-.8477,1.8134-6.5274,5.7138-12.9116.1895-.3072.375-.6192.5694-.9307.52-.8486,1.0361-1.71,1.5517-2.564,4.5733-7.6841,3.4385-11.313,2.4483-22.8042-.8047-9.3379-14.15-52.2363-14.15-52.2363l19.834-3.2725s5.7255,34.125,12.2617,39.42c3.4951,2.8227,7.4287,2.8857,10.792,4.9834q.3574.219.6992.4492A25.9985,25.9985,0,0,1,1556.6487,451.1679Z" transform="translate(-13.5423 -21.9432)"/><path class="cls-6" d="M1556.6487,451.1679a5.4659,5.4659,0,0,1,.9336,5.853.0506.0506,0,0,1-.0146.0289c-1.7549,3.88-6.3272,8.1782-11.5879,12.4726-.6875.5625-1.2949,1.08-1.835,1.563-.1416.1221-.2832.2446-.416.3677-.11.0947-.2158.1943-.32.2851-5.0791,4.6162-3.1875,5.6953-12.32,15.07-10.4131,10.6827-17.5313,10.8262-19.5488,9.8321-1.7071-.8477,1.8134-6.5274,5.7138-12.9116a44.0459,44.0459,0,0,0,18.5235-13.4473c6.28-7.8989,10.5029-18.0752,14.7832-23.957q.3574.219.6992.4492A25.9985,25.9985,0,0,1,1556.6487,451.1679Z" transform="translate(-13.5423 -21.9432)"/><path class="cls-5" d="M1397.0023,437.6684c-1.2666,6.1065-9.9756,5.0244-19.6963,2.5762s-7.4278.397-21.2754-1.2349-18.0108-6.83-18.419-8.893c-.3652-1.8311,6.4873-2.4278,13.8389-3.2222.9238-.0972,1.8525-.2046,2.7812-.3125,8.3008-.982,14.4122-6.291,21.9756-10.6323,7.1651-4.1128,17.9326-20.9991,17.9326-20.9991l18.9961,1.64s-10.08,15.0791-13.9843,21.6382c-2.2969,3.8579-2.2129,8.9814-1.9571,12.9394A24.42,24.42,0,0,1,1397.0023,437.6684Z" transform="translate(-13.5423 -21.9432)"/><path class="cls-6" d="M1377.306,440.2446c-9.7217-2.4483-7.4278.397-21.2754-1.2349s-18.0108-6.83-18.419-8.893c-.3652-1.8311,6.4873-2.4278,13.8389-3.2222l.0674.1416a39.0669,39.0669,0,0,0,19.8047,6.31c9.4013.2949,19.3789-2.3287,25.872-2.1778a24.42,24.42,0,0,1-.1923,6.5005C1395.7357,443.7749,1387.0267,442.6928,1377.306,440.2446Z" transform="translate(-13.5423 -21.9432)"/><path class="cls-6" d="M1535.1771,420.4233s-1.3243.86-3.3,1.9517a44.2,44.2,0,0,1-8.6592,3.7641,35.1728,35.1728,0,0,1-8.9141,1.1616c-2.0605.0157-3.416-.1235-3.416-.1235l-22.7627-62.5957-4.1123-11.3154-4.376-12.0435-1.5254-4.19L1470.7,316.6474s18.1153-46.4468,36.5869-24.3037a44.8372,44.8372,0,0,1,6.3282,11.44c1.3476,3.2836,2.6259,6.9858,3.85,10.9975.914,3.0132,1.7968,6.1963,2.6484,9.5112,2.3008,9.0152,4.3379,18.9751,6.1182,28.9742C1532.1712,386.6547,1535.1771,420.4233,1535.1771,420.4233Z" transform="translate(-13.5423 -21.9432)"/><path class="cls-7" d="M1657.4817,321.86l-92.291,3.8833c-20.2148-4.1821-37.2793-14.8813-48.873-20.62-.961-.4805-1.8594-.93-2.7031-1.34-3.9581-1.9673-6.6836-3.3072-7.8-3.54-7.0245-1.4639-10.6338,9.9756-16.5811,24.0483-1.2168,2.8658-2.5176,5.8321-3.9736,8.8291a45.2181,45.2181,0,0,1-5.6231,8.1016c-.4883.5884-.9912,1.1924-1.5254,1.812-20.4238,23.855-73.0049,68.28-73.0049,68.28s-.6191,0-1.6191-.023c-3.2139-.062-10.3857-.3564-13.8164-1.6728a21.0922,21.0922,0,0,1-4.4775-2.3237,10.143,10.143,0,0,1-2.13-1.9131s62.9209-123.022,95.4961-156.5347V248.84c.4736-.4883.9375-.9526,1.4023-1.394,3.5557-3.4776,6.7149-5.7706,9.3408-6.5992,11.0987-3.4926,82.9034.4029,82.9034.4029l2.2919-3.7251,3.834-.2715.6582-.0464,3.1983-.2324h.0078l4.415-.31,6.56-.4648,17.7441-1.2622,2.8506-.2017,32.8076-2.3311s1.4952,3.377,3.5166,8.9688c.79,2.1841,1.6573,4.7012,2.5479,7.4892C1658.4935,267.18,1666.0784,300.1352,1657.4817,321.86Z" transform="translate(-13.5423 -21.9432)"/><path class="cls-6" d="M1678.4759,110.11c-16.3965-13.9951-28.0918-17.457-29.7178-39.6157-.8828-12.0279-17.0322-51.8145-44.3486-48.3369a40.9982,40.9982,0,0,1-6.8848.4028,25.5262,25.5262,0,0,0-13.88,3.4853c-13.1513,7.6988-37.3691,78.8912-21.0429,103.9073a18.1231,18.1231,0,0,0,13.02,8.3725c.6894.3872,1.3867.7823,2.1064,1.1851h.0079c2.9355,1.65,6.165,3.4619,9.581,5.3984,19.3008,10.8819,44.5723,25.272,57.5147,32.5445h.0078c.7812.4414,1.5175.86,2.207,1.247,1.5029.8365,2.7725,1.5411,3.7637,2.0909,1.5185.8291,2.4013,1.2939,2.4707,1.2939a56.2168,56.2168,0,0,0,8.0088,2.2534c6.5058,1.3555,15.622,2.1148,21.9726-2.0366a34.8773,34.8773,0,0,0,6.9551-6.0259C1703.3528,161.5839,1706.8148,134.2905,1678.4759,110.11Z" transform="translate(-13.5423 -21.9432)"/><path class="cls-5" d="M1597.21,126.4516c-.1133.0723,12.59,4.51,21.1308.7988,8.0352-3.4834,14.1963-16.62,14.0781-16.6274-3.6435-.1943-7.621-3.4082-10.5546-24.3335l-1.5557.5454-26.1553,9.2036s1.8311,8.3848,2.9981,16.3633C1598.1341,119.101,1598.6419,125.5156,1597.21,126.4516Z" transform="translate(-13.5423 -21.9432)"/><path class="cls-8" d="M1594.1536,96.0385s1.1153,5.876,2.6621,14.2735c15.0039-2.5913,21.3262-15.39,23.4932-23.4771Z" transform="translate(-13.5423 -21.9432)"/><path class="cls-5" d="M1590.21,104.32s35.7285-4.5391,32.5586-26.7451-.6915-37.7481-23.6377-35.7891S1572.972,52.85,1572.2278,60.519,1580.8343,104.9282,1590.21,104.32Z" transform="translate(-13.5423 -21.9432)"/><path class="cls-6" d="M1573.6136,48.3686s22.7119,19.853,38.2431,21.55,21.45-3.25,21.45-3.25a60.7018,60.7018,0,0,1-14.5341-19.9858,10.9282,10.9282,0,0,0-8.9639-6.5059C1598.7181,39.1406,1577.6819,38.5551,1573.6136,48.3686Z" transform="translate(-13.5423 -21.9432)"/><path class="cls-6" d="M1587.91,46.706s-7.6953,7.3369-10.1416,12.8023c-2.36,5.2739-3.1465,17.9213-1.3321,22.96,0,0-11.747-23.2427-4.9248-34.4468C1578.7454,36.1406,1587.91,46.706,1587.91,46.706Z" transform="translate(-13.5423 -21.9432)"/><path class="cls-2" d="M1566.7815,178.8212c.5694,72.2627-.1064,57.1587,7.7481,64.0708,1.8936,1.6636,7.24,2.6856,14.2832,3.2007,22.1455,1.627,61.1191-1.7485,62.6289-5.8325,5.21-14.1313,1.6338-18.5586,6.0508-40.2187.46-2.3033,1.0283-4.7964,1.6924-7.5113,3.66-14.872,7.1562-19.9155-5.2871-43.938-11.2852-21.76-23.042-39.44-24.1153-38.8125-30.3027,17.7-32.63,2.6265-32.63,2.6265S1566.5013,143.5737,1566.7815,178.8212Z" transform="translate(-13.5423 -21.9432)"/><path class="cls-7" d="M1535.1771,420.4233s-1.3243.86-3.3,1.9517a44.2,44.2,0,0,1-8.6592,3.7641,35.1728,35.1728,0,0,1-8.9141,1.1616c-2.0605.0157-3.416-.1235-3.416-.1235l-22.7627-62.5957,6.6689-11.3154,17.07-28.9742,5.6-9.5112c.914,3.0132,1.7968,6.1963,2.6484,9.5112,2.3008,9.0152,4.3379,18.9751,6.1182,28.9742C1532.1712,386.6547,1535.1771,420.4233,1535.1771,420.4233Z" transform="translate(-13.5423 -21.9432)"/><path class="cls-2" d="M1597.1517,112.4018s-31.0879,5.0454-34.8282,18.3882-25.7509,91.7837-25.7509,91.7837,15.7646,2.9468,23.1084-4.294,25.8505-67.4746,25.8505-67.4746Z" transform="translate(-13.5423 -21.9432)"/><path class="cls-9" d="M1588.8128,246.0927c22.1455,1.627,61.1191-1.7485,62.6289-5.8325,5.21-14.1313,1.6338-18.5586,6.0508-40.2187l-10.4746-30.1665s1.53,33.5214-8.4131,42.2651c-9.9346,8.7441-40.5811,16.728-45.4365,24.0586A26.9705,26.9705,0,0,0,1588.8128,246.0927Z" transform="translate(-13.5423 -21.9432)"/><path class="cls-5" d="M1614.2972,232.1782s-21.8233-5.021-25.3643-3.106-12.21,8.9185-13.3066,11.3692,7.8652-1.8111,10.7763-2.5694c1.8848-.4912,6.8243,1.2642,9.2706,2.0991,10.2919,3.5113,16.625,1.7872,16.625,1.7872Z" transform="translate(-13.5423 -21.9432)"/><path class="cls-2" d="M1629.8011,109.7641s29.3369,2.0147,39.3965,16.2573c14.1611,20.0489,41.9336,105.2622,25.5937,116.4859-18.4023,12.6391-83.3642,2.7519-83.3642,2.7519s-2.0928-10.13.9521-15.0014,52.03-12.43,54.3047-14.6729-27.918-44.2349-27.8691-51.0093C1638.8616,157.8007,1629.8011,109.7641,1629.8011,109.7641Z" transform="translate(-13.5423 -21.9432)"/><path class="cls-5" d="M1587.8323,235.1484s-4.622,5.8755-6.1279,6.57a4.4771,4.4771,0,0,1-2.4756.5112l3.126-5.5327Z" transform="translate(-13.5423 -21.9432)"/><path class="cls-5" d="M1588.9329,229.0722l-13.3613,6.3721a2.374,2.374,0,0,0,2.2.8677,31.7529,31.7529,0,0,0,5.7861-1.5464Z" transform="translate(-13.5423 -21.9432)"/><polygon class="cls-1" points="1571.012 226.015 1465.681 225.272 1434.551 146.255 1539.719 146.997 1571.012 226.015"/><polygon class="cls-10" points="1464.467 222.193 1603.558 223.174 1603.535 226.244 1465.681 225.272 1464.467 222.193"/><path class="cls-11" d="M1506.0892,208.0058c-.7744-2.7754.8437-5.0093,3.6132-4.99a7.1853,7.1853,0,0,1,6.417,5.0605c.7745,2.7754-.8427,5.0093-3.6123,4.99A7.1878,7.1878,0,0,1,1506.0892,208.0058Z" transform="translate(-13.5423 -21.9432)"/><path class="cls-7" d="M444.8909,1272.3627h562.2442a70.811,70.811,0,0,1,70.811,70.811v2.9532a70.811,70.811,0,0,1-70.811,70.811H444.891a70.8116,70.8116,0,0,1-70.8116-70.8116v-2.9521a70.8115,70.8115,0,0,1,70.8115-70.8115Z" transform="translate(1438.4832 2667.3574) rotate(-180)"/><path class="cls-4" d="M763.5389,1325.4174l-.5049,31.5957a50.6211,50.6211,0,0,0,49.8022,51.42l373.6827,5.9687.1005-6.2949a64.4075,64.4075,0,0,1-34.7158-58.21l.1778-11.1133a64.4067,64.4067,0,0,1,36.5576-57.0712l.0019-.128-373.6826-5.97A50.621,50.621,0,0,0,763.5389,1325.4174Z" transform="translate(-13.5423 -21.9432)"/><path class="cls-12" d="M1196.3021,1416.9379h-393.68c-25.3916,0-45.2818-31.7734-45.2818-72.3349s19.89-72.335,45.2818-72.335h393.68a5.9195,5.9195,0,1,1,0,11.8389h-393.68c-18.128,0-33.4434,27.7041-33.4434,60.4961s15.3154,60.4961,33.4434,60.4961h393.68a5.9194,5.9194,0,1,1,0,11.8388Z" transform="translate(-13.5423 -21.9432)"/><rect class="cls-13" x="806.6494" y="1288.8414" width="338.5518" height="0.9317"/><rect class="cls-13" x="1011.8686" y="1302.0445" width="128.523" height="0.8536"/><rect class="cls-13" x="916.187" y="1346.942" width="224.2046" height="0.8535"/><path class="cls-14" d="M862.2361,1311.25s17.3726,7.2686,19.4366,31.8057,0,37.6094,0,37.6094l-20.97-9.9756-21.1709,9.9756V1342.309s-.7739-31.0586-29.6708-31.0586Z" transform="translate(-13.5423 -21.9432)"/><path class="cls-15" d="M399.8132,1163.5375H832.4046a46.353,46.353,0,0,1,46.353,46.353v16.12a46.3526,46.3526,0,0,1-46.3526,46.3526H399.8133a46.3526,46.3526,0,0,1-46.3526-46.3526v-16.12a46.3525,46.3525,0,0,1,46.3525-46.3525Z" transform="translate(1218.676 2413.957) rotate(180)"/><path class="cls-4" d="M644.115,1203.4174l-.3764,23.75a37.9257,37.9257,0,0,0,37.1675,38.65l278.88,4.4864.0752-4.7325a48.4591,48.4591,0,0,1-25.9087-43.7539l.1329-8.3535a48.4342,48.4342,0,0,1,27.2827-42.8994l.0014-.0957-278.88-4.4873A37.9048,37.9048,0,0,0,644.115,1203.4174Z" transform="translate(-13.5423 -21.9432)"/><path class="cls-16" d="M967.0867,1272.21H673.2835c-18.95,0-33.7949-23.8838-33.7949-54.373s14.8447-54.3721,33.7949-54.3721H967.0867a4.45,4.45,0,0,1,0,8.8994H673.2835c-13.5293,0-24.96,20.8242-24.96,45.4727s11.43,45.4736,24.96,45.4736H967.0867a4.45,4.45,0,0,1,0,8.8994Z" transform="translate(-13.5423 -21.9432)"/><rect class="cls-13" x="713.3716" y="1170.5045" width="212.1435" height="0.6406"/><rect class="cls-13" x="826.0083" y="1180.4" width="95.917" height="0.6406"/><rect class="cls-13" x="754.6011" y="1214.1481" width="167.3242" height="0.6406"/><path class="cls-5" d="M1882.4554,1073.3071s5.4053,16.6474,4.94,20.4541-3.8574,16.8154-6.2812,20.1455-3.62-13.5615-5.5381-16.1025-.3936,6.3593-1.7471,7.1835-4.1719-6.5478-5.3838-9.1484,2.9639-12.1914,2.9756-18.875S1882.4554,1073.3071,1882.4554,1073.3071Z" transform="translate(-13.5423 -21.9432)"/><path class="cls-6" d="M1755.3343,941.0747c-1.4981-19.09,19.2373-32.1768,35.61-22.2491q.504.3062.9981.6231c24.5117,15.7773,77.4023,89.3984,81.041,96.7734s14.3838,66.0479,14.3838,66.0479-13.2764,4.8574-19.4854-.1826c0,0-21.5322-55.6426-24.7158-58.4249s-86.124-49.3193-86.831-66.7666C1756.1487,952.2827,1755.7786,946.7368,1755.3343,941.0747Z" transform="translate(-13.5423 -21.9432)"/><rect class="cls-1" x="1586.5679" y="883.6163" width="21.9282" height="110.3053" transform="translate(1222.6854 2734.2017) rotate(-109.196)"/><polygon class="cls-17" points="1507.686 943.392 1535.509 945.315 1528.299 924.606 1507.686 943.392"/><path class="cls-17" d="M1644.7092,912.1145h21.9278a0,0,0,0,1,0,0v5.5484a7.2748,7.2748,0,0,1-7.2748,7.2748h-6.9317a7.7213,7.7213,0,0,1-7.7213-7.7213v-5.1018A0,0,0,0,1,1644.7092,912.1145Z" transform="translate(1319.0556 2762.2104) rotate(-109.1958)"/><path class="cls-18" d="M1903.34,1371.9887s9.8829,9.02,7.9541,15.4278-10.8466,10.6806-12.0527,18.5136-6.0254,12.1045-10.3642,12.1045h-20.6866s-3.1933-5.5117,4.52-7.1728,10.623-10.8662,10.1406-19.41a150.59,150.59,0,0,1,.7226-19.9375l16.3916-3.7978Z" transform="translate(-13.5423 -21.9432)"/><path class="cls-18" d="M1782.0921,1395.3159s1.7744,20.5263-2.5654,22.6621l-55.5274-.1133s0-6.4082,8.919-7.833,24.5869-6.6455,27.2382-18.2754S1782.0921,1395.3159,1782.0921,1395.3159Z" transform="translate(-13.5423 -21.9432)"/><path class="cls-1" d="M1735.2112,1105.3676s2.9287,35.9795,6.3711,79.2295c4.6787,58.751,10.3057,130.918,10.8623,144.5889.961,23.74,4.8233,61.7139,4.8233,61.7139s9.1553,9.0214,27.4795,5.2187c0,0,16.3281-54.208,20.9922-111.5635.0722-.94.1455-1.8877.2177-2.834,4.3389-58.3886,11.086-181.3388,11.086-181.3388Z" transform="translate(-13.5423 -21.9432)"/><path class="cls-19" d="M1735.2112,1105.3676s2.9287,35.9795,6.3711,79.2295l64.1573,99.958c.0722-.94.1455-1.8877.2177-2.834,4.3389-58.3886,11.086-181.3388,11.086-181.3388Z" transform="translate(-13.5423 -21.9432)"/><path class="cls-1" d="M1748.5862,1109.64s52.79,130.3047,87.501,191.541,45.5586,78.3262,45.5586,78.3262,19.8867-7.833,21.6943-13.1729c0,0-13.2734-118.22-36.5195-147.039-13.1348-16.2842-28.5635-65.1524-29.2871-82.2412s-4.7-50.9122-4.7-50.9122Z" transform="translate(-13.5423 -21.9432)"/><path class="cls-5" d="M1794.1048,914.1743s-35.3691,17.9394-56.084,11.9541a48.5947,48.5947,0,0,1,13.7149-11.4258c-.794-4.1182-1.42-7.6934-1.7969-10.7285a99.4723,99.4723,0,0,1-1.0889-10.9756l13.5625-11.11,12.8594-10.6289C1774.8216,900.4389,1794.1048,914.1743,1794.1048,914.1743Z" transform="translate(-13.5423 -21.9432)"/><path class="cls-7" d="M1829.2366,1096.4536c-14.28,8.6425-27.8,15.1406-43.622,18.791-18.6612,4.4248-41.5977,3.12-49.2725,4.289a3.1856,3.1856,0,0,1-2.2373-.5664c-.6025-.3086-3.9883-23.0732-7.3809-51.8047-.15-1.1552-.3086-2.3242-.372-3.4931l-.0508-.3867c-1.3194-11.2325-2.4746-23.03-3.4785-34.8575-.8174-9.2021-1.4912-18.3037-1.958-26.8525-.5879-10.6943-.8321-20.52-.5879-28.6025.1074-3.6934.3222-7.0147.6523-9.8975,2.0225-16.7832,10.0274-28.7754,17.5645-37.7041l6.2539-7.1152a34.2886,34.2886,0,0,0,21.6386-5.5225c7.6387-5.0283,15.9131-10.9873,17.47-10.083,11.705,6.4043,21.2031,23.5527,28.01,45.4707a250.1283,250.1283,0,0,1,8.8145,42.0938c.6162,4.705,1.1406,9.5312,1.542,14.3369.0791.89.1435,1.7783.2148,2.6533.918,13.14,2.418,25.4541,4.0811,36.4492,2.2383,14.832,4.7842,27.2539,6.5849,36.0039.9034,4.4541,1.5918,7.8975,2.001,10.3643C1835.469,1092.1713,1831.1585,1095.2553,1829.2366,1096.4536Z" transform="translate(-13.5423 -21.9432)"/><path class="cls-20" d="M1775.73,882.4038s-8.6992,16.63-25.791,21.57a99.4723,99.4723,0,0,1-1.0889-10.9756l13.5625-11.11Z" transform="translate(-13.5423 -21.9432)"/><path class="cls-5" d="M1742.5579,892.6479s34.1778,4.8965,36.961-16.1094,9.0673-34.5224-12.6368-38.5371-27.0146,3.458-29.6748,10.2481S1733.74,890.8325,1742.5579,892.6479Z" transform="translate(-13.5423 -21.9432)"/><path class="cls-21" d="M1791.0814,835.0131c.3027-.3613,1.01-.6611,2.5957-.7793a6.4392,6.4392,0,0,0-2.9825-.7763c-.3759-2.2012-1.6269-6.085-5.4453-6.959a4.7629,4.7629,0,0,1,2.376,3.39c-4.4893-4.4326-13.9834-7.5351-40.0518-4.956-34.3535,3.3994-22.5771,25.2041-18.07,27.7422s15.5772-4.8848,23.89-4.3907S1763.5218,860.74,1766.37,862.33s1.6836-1.2988,5.458-3.0957,4.2627,4.5079,3.2442,8.6338,4.3232,9.4356,4.3232,9.4356l5.1758-5.8018c5.1767-5.8008,9.6836-30.0283,7.1758-35.124C1791.5267,835.9272,1791.3069,835.4711,1791.0814,835.0131Z" transform="translate(-13.5423 -21.9432)"/><path class="cls-6" d="M1780.2288,974.8422s-28.8174,21.9248-59.3642,26.7305c-.5879-10.6943-.8321-20.52-.5879-28.6025Z" transform="translate(-13.5423 -21.9432)"/><path class="cls-5" d="M1603.2571,946.5493c-.4541-.4883-6.33-20.1328-16.49-18.6993-6.63.9346-17.4658,4.7725-14.5889,13.5079,1.1319,3.4345,21.333,15.2646,21.333,15.2646Z" transform="translate(-13.5423 -21.9432)"/><path class="cls-7" d="M1783.7923,932.476c16.4316,9.83,15.1,34.3135-2.4746,41.916q-.5406.2344-1.086.4532C1753.1771,985.6977,1672.6761,986.9,1654.4085,984.9c-19.8164-2.17-62.1816-26.5079-62.1816-26.5079s3.7255-13.6377,11.4287-15.7822c0,0,44.7549,12.6856,61.9472,13.67,10.8838.6241,90.0733-41.6709,104.709-32.1464C1774.181,926.6518,1778.9183,929.56,1783.7923,932.476Z" transform="translate(-13.5423 -21.9432)"/><polygon class="cls-4" points="1376.603 1299.551 1193.464 1308.552 1193.464 1125.414 1376.603 1116.413 1376.603 1299.551"/><polygon class="cls-3" points="1207.219 1286.954 1261.314 1186.769 1301.09 1239.067 1320.951 1216.381 1363.039 1279.296 1207.219 1286.954"/><path class="cls-3" d="M1300.6331,1193.4467a14.8626,14.8626,0,0,1,13.999-14.6865,13.2006,13.2006,0,0,1,13.9981,13.3106,14.8624,14.8624,0,0,1-13.9981,14.6865A13.2008,13.2008,0,0,1,1300.6331,1193.4467Z" transform="translate(-13.5423 -21.9432)"/><polygon class="cls-4" points="1920.82 599.285 1656.98 612.252 1656.98 348.411 1920.82 335.444 1920.82 599.285"/><polygon class="cls-3" points="1676.796 581.135 1754.731 436.803 1812.031 512.147 1840.646 479.464 1901.28 570.103 1676.796 581.135"/><path class="cls-3" d="M1805.4065,436.7539a21.4125,21.4125,0,0,1,20.167-21.1587,19.0182,19.0182,0,0,1,20.168,19.1762,21.4123,21.4123,0,0,1-20.168,21.1587A19.0179,19.0179,0,0,1,1805.4065,436.7539Z" transform="translate(-13.5423 -21.9432)"/><polygon class="cls-1" points="1451.461 798.346 1193.464 811.026 1193.464 795.999 1451.461 783.319 1451.461 798.346"/><polygon class="cls-4" points="1331.777 834.648 1193.464 841.446 1193.464 833.931 1331.777 827.134 1331.777 834.648"/><polygon class="cls-4" points="1291.237 861.64 1193.464 866.446 1193.464 858.932 1291.237 854.127 1291.237 861.64"/><polygon class="cls-4" points="1407.995 855.902 1310.222 860.708 1310.222 853.194 1407.995 848.388 1407.995 855.902"/><polygon class="cls-4" points="1541.063 849.363 1421.927 855.217 1421.927 847.704 1541.063 841.848 1541.063 849.363"/><polygon class="cls-4" points="1278.347 886.761 1193.464 890.933 1193.464 883.42 1278.347 879.248 1278.347 886.761"/><polygon class="cls-4" points="1379.71 881.78 1294.827 885.952 1294.827 878.438 1379.71 874.266 1379.71 881.78"/><polygon class="cls-4" points="1495.233 876.102 1391.805 881.185 1391.805 873.672 1495.233 868.589 1495.233 876.102"/><polygon class="cls-1" points="1451.461 628.763 1193.464 641.443 1193.464 626.416 1451.461 613.736 1451.461 628.763"/><polygon class="cls-4" points="1331.777 665.065 1193.464 671.863 1193.464 664.349 1331.777 657.551 1331.777 665.065"/><polygon class="cls-4" points="1496.945 656.948 1358.632 663.746 1358.632 656.231 1496.945 649.433 1496.945 656.948"/><polygon class="cls-4" points="1291.237 692.057 1193.464 696.863 1193.464 689.349 1291.237 684.544 1291.237 692.057"/><polygon class="cls-4" points="1407.995 686.319 1310.222 691.125 1310.222 683.611 1407.995 678.805 1407.995 686.319"/><polygon class="cls-4" points="1541.063 679.78 1421.927 685.634 1421.927 678.121 1541.063 672.265 1541.063 679.78"/><polygon class="cls-4" points="1278.347 717.178 1193.464 721.35 1193.464 713.837 1278.347 709.665 1278.347 717.178"/><polygon class="cls-4" points="1379.71 712.197 1294.827 716.369 1294.827 708.855 1379.71 704.683 1379.71 712.197"/><polygon class="cls-4" points="1495.233 706.519 1391.805 711.602 1391.805 704.089 1495.233 699.006 1495.233 706.519"/><polygon class="cls-1" points="1836.986 649.677 1655.496 658.597 1655.496 648.026 1836.986 639.106 1836.986 649.677"/><polygon class="cls-4" points="1752.794 675.215 1655.496 679.996 1655.496 674.711 1752.794 669.928 1752.794 675.215"/><polygon class="cls-4" points="1868.982 669.504 1771.685 674.286 1771.685 669 1868.982 664.218 1868.982 669.504"/><polygon class="cls-4" points="1724.276 694.202 1655.496 697.583 1655.496 692.297 1724.276 688.917 1724.276 694.202"/><polygon class="cls-4" points="1806.41 690.166 1737.631 693.546 1737.631 688.26 1806.41 684.88 1806.41 690.166"/><polygon class="cls-4" points="1900.018 685.565 1816.211 689.684 1816.211 684.398 1900.018 680.279 1900.018 685.565"/><polygon class="cls-4" points="1715.208 711.874 1655.496 714.808 1655.496 709.523 1715.208 706.588 1715.208 711.874"/><polygon class="cls-4" points="1786.513 708.369 1726.801 711.304 1726.801 706.018 1786.513 703.084 1786.513 708.369"/><polygon class="cls-4" points="1867.778 704.376 1795.021 707.951 1795.021 702.666 1867.778 699.09 1867.778 704.376"/><polygon class="cls-1" points="1451.461 975.248 1193.464 987.927 1193.464 972.9 1451.461 960.22 1451.461 975.248"/><polygon class="cls-4" points="1331.777 1011.549 1193.464 1018.346 1193.464 1010.833 1331.777 1004.035 1331.777 1011.549"/><polygon class="cls-4" points="1496.945 1003.431 1358.632 1010.229 1358.632 1002.715 1496.945 995.918 1496.945 1003.431"/><polygon class="cls-4" points="1291.237 1038.542 1193.464 1043.347 1193.464 1035.833 1291.237 1031.028 1291.237 1038.542"/><polygon class="cls-4" points="1407.995 1032.803 1310.222 1037.609 1310.222 1030.094 1407.995 1025.29 1407.995 1032.803"/><polygon class="cls-4" points="1541.063 1026.263 1421.927 1032.119 1421.927 1024.605 1541.063 1018.75 1541.063 1026.263"/><polygon class="cls-4" points="1278.347 1063.663 1193.464 1067.835 1193.464 1060.32 1278.347 1056.149 1278.347 1063.663"/><polygon class="cls-4" points="1379.71 1058.681 1294.827 1062.853 1294.827 1055.339 1379.71 1051.167 1379.71 1058.681"/><polygon class="cls-4" points="1495.233 1053.004 1391.805 1058.087 1391.805 1050.573 1495.233 1045.49 1495.233 1053.004"/><polygon class="cls-1" points="1623.109 1210.895 1423.834 1220.689 1423.834 1205.662 1623.109 1195.868 1623.109 1210.895"/><polygon class="cls-4" points="1530.666 1245.858 1423.834 1251.108 1423.834 1243.594 1530.666 1238.343 1530.666 1245.858"/><polygon class="cls-4" points="1658.241 1239.588 1551.409 1244.839 1551.409 1237.325 1658.241 1232.074 1658.241 1239.588"/><polygon class="cls-4" points="1499.354 1272.397 1423.834 1276.108 1423.834 1268.594 1499.354 1264.882 1499.354 1272.397"/><polygon class="cls-4" points="1589.537 1267.965 1514.017 1271.676 1514.017 1264.163 1589.537 1260.451 1589.537 1267.965"/><polygon class="cls-4" points="1692.317 1262.914 1600.298 1267.436 1600.298 1259.922 1692.317 1255.399 1692.317 1262.914"/><polygon class="cls-4" points="1489.397 1297.374 1423.834 1300.596 1423.834 1293.082 1489.397 1289.86 1489.397 1297.374"/><polygon class="cls-4" points="1567.689 1293.526 1502.127 1296.748 1502.127 1289.234 1567.689 1286.012 1567.689 1293.526"/><polygon class="cls-4" points="1656.919 1289.14 1577.031 1293.067 1577.031 1285.552 1656.919 1281.627 1656.919 1289.14"/><polygon class="cls-4" points="1049.875 689.489 762.366 679.05 762.366 391.542 1049.875 401.98 1049.875 689.489"/><polygon class="cls-3" points="783.961 646.988 868.886 496.965 931.328 584.404 962.508 551.453 1028.582 655.869 783.961 646.988"/><path class="cls-3" d="M922.8934,498.4013A21.041,21.041,0,0,1,944.87,477.2231,22.9674,22.9674,0,0,1,966.846,499.997,21.0411,21.0411,0,0,1,944.87,521.1757,22.9686,22.9686,0,0,1,922.8934,498.4013Z" transform="translate(-13.5423 -21.9432)"/><polygon class="cls-1" points="1015.525 802.864 757.528 793.498 757.528 778.469 1015.525 787.836 1015.525 802.864"/><polygon class="cls-4" points="895.841 828.938 757.528 823.917 757.528 816.403 895.841 821.424 895.841 828.938"/><polygon class="cls-4" points="855.302 852.466 757.528 848.917 757.528 841.403 855.302 844.953 855.302 852.466"/><polygon class="cls-4" points="972.06 856.706 874.286 853.156 874.286 845.642 972.06 849.191 972.06 856.706"/><polygon class="cls-4" points="1105.127 861.537 985.991 857.211 985.991 849.697 1105.127 854.022 1105.127 861.537"/><polygon class="cls-4" points="842.411 876.486 757.528 873.404 757.528 865.89 842.411 868.972 842.411 876.486"/><polygon class="cls-4" points="943.774 880.166 858.892 877.085 858.892 869.57 943.774 872.652 943.774 880.166"/><polygon class="cls-4" points="1059.298 884.36 955.869 880.605 955.869 873.091 1059.298 876.846 1059.298 884.36"/><polygon class="cls-1" points="1015.525 979.765 757.528 970.398 757.528 955.371 1015.525 964.737 1015.525 979.765"/><polygon class="cls-4" points="895.841 1005.84 757.528 1000.818 757.528 993.304 895.841 998.326 895.841 1005.84"/><polygon class="cls-4" points="1061.01 1011.836 922.696 1006.814 922.696 999.3 1061.01 1004.322 1061.01 1011.836"/><polygon class="cls-4" points="855.302 1029.368 757.528 1025.818 757.528 1018.304 855.302 1021.853 855.302 1029.368"/><polygon class="cls-4" points="972.06 1033.606 874.286 1030.056 874.286 1022.543 972.06 1026.092 972.06 1033.606"/><polygon class="cls-4" points="1105.127 1038.437 985.991 1034.112 985.991 1026.598 1105.127 1030.924 1105.127 1038.437"/><polygon class="cls-4" points="842.411 1053.387 757.528 1050.305 757.528 1042.792 842.411 1045.873 842.411 1053.387"/><polygon class="cls-4" points="943.774 1057.067 858.892 1053.985 858.892 1046.471 943.774 1049.553 943.774 1057.067"/><polygon class="cls-4" points="1059.298 1061.261 955.869 1057.506 955.869 1049.992 1059.298 1053.747 1059.298 1061.261"/><polygon class="cls-1" points="648.94 363.697 390.943 354.331 390.943 339.303 648.94 348.67 648.94 363.697"/><polygon class="cls-4" points="529.256 389.772 390.943 384.751 390.943 377.236 529.256 382.258 529.256 389.772"/><polygon class="cls-4" points="694.425 395.768 556.111 390.747 556.111 383.233 694.425 388.255 694.425 395.768"/><polygon class="cls-4" points="488.717 413.3 390.943 409.751 390.943 402.237 488.717 405.786 488.717 413.3"/><polygon class="cls-4" points="605.475 417.539 507.701 413.989 507.701 406.475 605.475 410.025 605.475 417.539"/><polygon class="cls-4" points="738.542 422.37 619.406 418.045 619.406 410.531 738.542 414.856 738.542 422.37"/><polygon class="cls-4" points="475.826 437.32 390.943 434.238 390.943 426.724 475.826 429.806 475.826 437.32"/><polygon class="cls-4" points="577.189 441 492.307 437.918 492.307 430.404 577.189 433.486 577.189 441"/><polygon class="cls-4" points="692.712 445.194 589.284 441.439 589.284 433.925 692.712 437.68 692.712 445.194"/><path class="cls-14" d="M13.5423,1383.9213a31.94,31.94,0,0,0,.2549,4.09,33.5274,33.5274,0,0,0,33.2968,29.4619H518.9754a33.5562,33.5562,0,0,0,0-67.1123H47.094A33.5544,33.5544,0,0,0,13.5423,1383.9213Z" transform="translate(-13.5423 -21.9432)"/><path class="cls-14" d="M49.5355,1344.2905h161.791a5.1641,5.1641,0,0,0,5.1494-5.1494h0a5.1647,5.1647,0,0,0-5.1494-5.1494H49.5355a5.1647,5.1647,0,0,0-5.15,5.1494h0A5.1642,5.1642,0,0,0,49.5355,1344.2905Z" transform="translate(-13.5423 -21.9432)"/><rect class="cls-22" x="58.4715" y="1344.2905" width="17.5371" height="6.0742" transform="translate(120.9378 2672.712) rotate(180)"/><path class="cls-22" d="M17.6136,1399.97a33.6031,33.6031,0,0,0,29.48,17.5029h99.9542V1399.97Z" transform="translate(-13.5423 -21.9432)"/><path class="cls-1" d="M614.9959,1374.0893v19.6563a23.7092,23.7092,0,0,1-23.7183,23.7275H99.73a23.7092,23.7092,0,0,1-23.7183-23.7275v-19.6563A23.72,23.72,0,0,1,99.73,1350.3618H591.2776A23.72,23.72,0,0,1,614.9959,1374.0893Z" transform="translate(-13.5423 -21.9432)"/><path class="cls-23" d="M614.1692,1399.97a23.7145,23.7145,0,0,1-22.8916,17.5029H99.73A23.7137,23.7137,0,0,1,76.8387,1399.97Z" transform="translate(-13.5423 -21.9432)"/><path class="cls-24" d="M566.1761,1384.0405c0,10.4228,3.7895,19.7373,9.76,25.9082.1363.1367.2637.2724.4.4092a23.814,23.814,0,0,0,16.8394,7.3515c9.9507,0,34.6147-15.0127,49.9-24.9814,7.6152-4.9707,12.9043-8.6875,12.9043-8.6875s-5.2891-3.7178-12.9043-8.6885c-15.2852-9.9775-39.9492-24.9912-49.9-24.9912a22.2925,22.2925,0,0,0-8.2608,1.6,27.0411,27.0411,0,0,0-11.3774,8.98,37.0369,37.0369,0,0,0-6.834,16.4209,1.7422,1.7422,0,0,0-.0273.2178A41.6327,41.6327,0,0,0,566.1761,1384.0405Z" transform="translate(-13.5423 -21.9432)"/><path class="cls-25" d="M566.1761,1384.0405c0,10.4228,3.7895,19.7373,9.76,25.9082l75.6543-26.0274-84.9145-6.3427A41.6327,41.6327,0,0,0,566.1761,1384.0405Z" transform="translate(-13.5423 -21.9432)"/><path class="cls-26" d="M573.5374,1360.94l75.4722,20.61-64.0948-29.59A27.0411,27.0411,0,0,0,573.5374,1360.94Z" transform="translate(-13.5423 -21.9432)"/><path class="cls-1" d="M638.15,1384.0405c0,4.0068,2.0542,7.4238,4.9258,8.6875,7.6152-4.9707,12.9043-8.6875,12.9043-8.6875s-5.2891-3.7178-12.9043-8.6885C640.2039,1376.6069,638.15,1380.0229,638.15,1384.0405Z" transform="translate(-13.5423 -21.9432)"/><path class="cls-6" d="M418.9564,1419.687h0a8.6958,8.6958,0,0,0,7.9145-5.5l203.3755-624.82c.9951-3.0577-.9346-5.5518-4.3106-5.5713h0a8.6942,8.6942,0,0,0-7.9145,5.5l-203.3755,624.82C413.6507,1417.1733,415.58,1419.6674,418.9564,1419.687Z" transform="translate(-13.5423 -21.9432)"/><path class="cls-6" d="M255.0482,1418.73h0a8.697,8.697,0,0,0,7.9145-5.5L466.3382,788.41c.9951-3.0576-.9346-5.5517-4.3106-5.5722h0a8.6965,8.6965,0,0,0-7.9145,5.5009L250.7376,1413.1577C249.7425,1416.2153,251.6727,1418.71,255.0482,1418.73Z" transform="translate(-13.5423 -21.9432)"/><path class="cls-6" d="M431.5325,875.4721l164.5933.961a8.2369,8.2369,0,0,0,7.4712-5.1924h0c.9355-2.874-.8955-5.2412-4.0694-5.2588L434.9349,865.02a8.2374,8.2374,0,0,0-7.4712,5.1924h0C426.5281,873.0864,428.3592,875.4536,431.5325,875.4721Z" transform="translate(-13.5423 -21.9432)"/><path class="cls-6" d="M396.0237,984.5639l164.5933.961a8.2375,8.2375,0,0,0,7.4712-5.1915h0c.9355-2.875-.8955-5.2421-4.0693-5.26l-164.5928-.9619a8.2375,8.2375,0,0,0-7.4712,5.1924h0C391.0193,982.1782,392.85,984.5454,396.0237,984.5639Z" transform="translate(-13.5423 -21.9432)"/><path class="cls-6" d="M361.8245,1089.6323l164.5933.9609a8.2376,8.2376,0,0,0,7.4712-5.1924h0c.9355-2.874-.8955-5.2412-4.0694-5.26l-164.5927-.961a8.2361,8.2361,0,0,0-7.4712,5.1924h0C356.82,1087.2465,358.6512,1089.6137,361.8245,1089.6323Z" transform="translate(-13.5423 -21.9432)"/><path class="cls-6" d="M323.324,1207.9155l164.5933.9619a8.2377,8.2377,0,0,0,7.4707-5.1924h0c.9355-2.874-.8955-5.2412-4.0689-5.26l-164.5932-.9609a8.2372,8.2372,0,0,0-7.4712,5.1924h0C318.32,1205.5307,320.1507,1207.8979,323.324,1207.9155Z" transform="translate(-13.5423 -21.9432)"/><path class="cls-6" d="M283.0267,1331.7192l164.5927.9619a8.2391,8.2391,0,0,0,7.4712-5.1924h0c.9361-2.874-.8955-5.2412-4.0688-5.26l-164.5933-.961a8.2369,8.2369,0,0,0-7.4712,5.1924h0C278.0218,1329.3344,279.8528,1331.7006,283.0267,1331.7192Z" transform="translate(-13.5423 -21.9432)"/><path class="cls-5" d="M587.4417,647.8881s1.9463-4.3769,3.2065-6.45,6.6456-8.1445,7.5621-6.7695,4.5825,10.6289,2.6347,13.22.1265,7.1-9.5605,9.8291Z" transform="translate(-13.5423 -21.9432)"/><path class="cls-19" d="M479.7913,620.25s49.5879,41.3926,68.9238,37.5616c15.1192-2.9971,38.3243-10.9541,38.3243-10.9541l4.64,11.87s-20.81,28.2285-42.5059,28.414c-33.9135.2891-58.9692-14.6826-58.9692-14.6826Z" transform="translate(-13.5423 -21.9432)"/><path class="cls-27" d="M392.824,1056.86s1.44,23.2217,5.9322,23.5547c.5976.0439,22.7866.0439,22.7866.0439l28.3252-.164s-.1856-6.8252-8.4654-8.2676-22.1377-7.2617-27.1533-18.2051C408.973,1042.309,392.824,1056.86,392.824,1056.86Z" transform="translate(-13.5423 -21.9432)"/><path class="cls-7" d="M391.1917,1058.4721s8.61,2.8809,15.333,2.8809a56.2963,56.2963,0,0,0,14.3145-2.043s1.6211-15.6777,10.542-50.22c4.6772-18.1055,11.3564-41.3848,20.8588-70.3106,26.2735-79.9453,34.2632-126.7129,34.9922-131.1416.0391-.2334.0542-.35.0542-.35l-.0849-.039-80.7749-35.4649s9.9834,110.1817-2.7539,152.4737A178.1074,178.1074,0,0,0,399.05,944.52C391.0052,990.4575,391.1917,1058.4721,391.1917,1058.4721Z" transform="translate(-13.5423 -21.9432)"/><path class="cls-6" d="M431.3812,1009.09c4.6772-18.1055,11.3564-41.3848,20.8588-70.3106,26.2735-79.9453,34.2632-126.7129,34.9922-131.1416-.0078-.1328-.0156-.2568-.0307-.3886l-80.7749-35.4649s9.9834,110.1817-2.7539,152.4737C401.8885,930.1694,431.3812,1009.09,431.3812,1009.09Z" transform="translate(-13.5423 -21.9432)"/><path class="cls-27" d="M455.9134,1056.86s1.4394,23.2217,5.9321,23.5547c.5977.0439,22.7866.0439,22.7866.0439l28.3252-.164s-.1855-6.8252-8.4653-8.2676-22.1377-7.2617-27.1533-18.2051C472.0623,1042.309,455.9134,1056.86,455.9134,1056.86Z" transform="translate(-13.5423 -21.9432)"/><path class="cls-7" d="M501.71,774.38s1.0493,71.3994-11.3042,159.0645-8.166,124.8789-8.166,124.8789-8.4869,2.75-11.9126,3.0293a54.0526,54.0526,0,0,1-17.6744-2.0459S434.971,971.6088,440.04,927.73s-24.2124-150.5664-24.2124-150.5664Z" transform="translate(-13.5423 -21.9432)"/><path class="cls-5" d="M444.4339,607.2963l15.7676,10.34,14.3618-4.0615c2.625-3.7452,3.32-10.9649,3.3589-17.2193a107.1114,107.1114,0,0,0-.5635-11.4663l-21.273-9.39-7.9375-3.4976c.023.1235.6177,6.5171.7027,7.4512C450.3333,596.0312,444.4339,607.2963,444.4339,607.2963Z" transform="translate(-13.5423 -21.9432)"/><path class="cls-1" d="M502.0716,794.23c-19.6255,18.9493-93.8994,15.7618-98.4766-5.1152-4.57-20.877,4.9917-177.7207,38.5161-187.5737,6.9566-2.045,44.148,9.976,44.148,9.976a235.84,235.84,0,0,1,9.6636,34.7032c.7426,3.7841,2.9106,43.8642,4.5337,81.3613.7568,17.5371,1.3969,34.5137,1.7246,46.9434C502.4793,786.1674,502.494,793.8149,502.0716,794.23Z" transform="translate(-13.5423 -21.9432)"/><path class="cls-28" d="M450.4417,579.7465c4.3159,7.2969,19.458,13.6827,27.48,16.6089a107.1114,107.1114,0,0,0-.5635-11.4663l-21.273-9.39C451.3836,575.4379,448.5189,576.4882,450.4417,579.7465Z" transform="translate(-13.5423 -21.9432)"/><path class="cls-5" d="M485.3826,583.5932s-34.2759,10.6924-40.6059-10.7554-15.0166-34.5122,6.6-42.2456,28.3032-.81,32.1572,5.835S494.1356,580.2592,485.3826,583.5932Z" transform="translate(-13.5423 -21.9432)"/><path class="cls-29" d="M482.1878,534.3608s-2.186,24.958-7.3477,23.8745-10.8427-3.4009-10.0869,4.1226-5.019,20.42-12.4619,20.39c-15.9624-.0659-33.3056-41.0254-28.936-48.7925C435.9637,511.5439,500.4109,507.0214,482.1878,534.3608Z" transform="translate(-13.5423 -21.9432)"/><path class="cls-19" d="M477.1448,602.082c-.4419-.1861-25.5156-11.4336-28.4477-10.4653s-6.5874,9.9238-6.5874,9.9238l44.1509,9.9824S482.7855,604.457,477.1448,602.082Z" transform="translate(-13.5423 -21.9432)"/><path class="cls-30" d="M633.2469,723.55,492.6922,855.8842c-2.7554,2.5938-6.229,3.42-7.72,1.836l-4.7447-5.0391c-1.4912-1.583-.457-5.0019,2.2979-7.5957L623.08,712.7514c2.7549-2.5937,6.229-3.42,7.72-1.8359l4.7446,5.039C637.0359,717.5385,636.0018,720.9565,633.2469,723.55Z" transform="translate(-13.5423 -21.9432)"/><path class="cls-14" d="M554.37,797.8129l-61.6782,58.0713c-2.7554,2.5938-6.229,3.42-7.72,1.836l-4.7447-5.0391c-1.4912-1.583-.457-5.0019,2.2979-7.5957l61.6782-58.07Z" transform="translate(-13.5423 -21.9432)"/><path class="cls-30" d="M600.9407,673.5854a110.1675,110.1675,0,1,0,182.5977-110.71c-.5635-.5635-1.1426-1.12-1.73-1.6675A110.1723,110.1723,0,0,0,600.9407,673.5854ZM632.429,571.9091a101.4747,101.4747,0,1,1,4.37,143.4341A101.3524,101.3524,0,0,1,632.429,571.9091Z" transform="translate(-13.5423 -21.9432)"/><g class="cls-31"><path class="cls-32" d="M780.2283,710.9653a101.4747,101.4747,0,1,1-4.3735-143.4282A101.0538,101.0538,0,0,1,780.2283,710.9653Z" transform="translate(-13.5423 -21.9432)"/></g><path class="cls-19" d="M502.181,774.5249c-77.4468-55.1875-71.0069-128.8282-71.0069-128.8282,28.3067,15.9649,56.395,51.2647,69.2823,81.8848C501.2132,745.1186,501.8533,762.0952,502.181,774.5249Z" transform="translate(-13.5423 -21.9432)"/><path class="cls-1" d="M578.6185,749.393c5.4609-1.2607,9.1289-5.39,9.8911-6.1113,0,0,2.33.1592-.3819,5.1279-.227.416-.73,1.4824-1.11,2.2383a.4821.4821,0,0,0,.4053.6934c3.1518.2392,6.3193-1.0079,12.3916.2587.8374.1749,1.0815,2.1807,1.0493,3.0362a7.75,7.75,0,0,1-1.6323,5.289c-.9781,1.2911-3.7076,2.68-9.7857,5.126-2.3159.9317-8.937.2285-15.1426-1.9033l-4.958-2.2949,1.5376-9.2149,1.2456.2608C574.1063,752.3139,576.556,749.8989,578.6185,749.393Z" transform="translate(-13.5423 -21.9432)"/><path class="cls-1" d="M455.2093,611.5229s-69.5874,13.249,20.4736,114.02c14.4033,16.1162,92.2232,37.1016,92.2232,37.1016s7.8925-6.7149,3.9135-12.1533c0,0-53.5805-38.9083-65.37-45.0948-5.3032-2.7832-20.5835-62.1015-29.229-76.3877S455.2093,611.5229,455.2093,611.5229Z" transform="translate(-13.5423 -21.9432)"/><path class="cls-5" d="M589.3284,649.1108a35.4617,35.4617,0,0,0,2.7207-6.6445c.4444-2.295,3.31-8.9873,4.4912-10.1651.4727-.4717,2.0308.1387,2.2149,2.166a11.7863,11.7863,0,0,1-1.1182,4.4014c-1.2446,3.1143-1.0395,7.3379-1.4726,8.7461C595.0867,651.1206,589.3284,649.1108,589.3284,649.1108Z" transform="translate(-13.5423 -21.9432)"/></svg>