<svg width="15" height="27" id="facebook" data-name="facebook" xmlns="http://www.w3.org/2000/svg" viewBox="0 0 14.3398 26.662"><defs><style>.cls-1{fill:#fff;fill-rule:evenodd;}</style></defs><title>facebook</title><path class="cls-1" d="M13.7994,5.1626l-2.3173.0008c-1.597,0-1.8892.6258-1.8892,1.8584V9.5864h4.0445a.54.54,0,0,1,.3828.16.5462.5462,0,0,1,.1583.3845l-.0017,4.3833a.542.542,0,0,1-.5407.5437H9.5927V26.1179a.5423.5423,0,0,1-.5409.5437H4.54a.5422.5422,0,0,1-.5409-.5437v-11.06H.5409A.5422.5422,0,0,1,0,14.5137V10.13a.5424.5424,0,0,1,.5408-.544H3.9994V6.5611C3.9994,2.575,6.4962,0,10.36,0L13.8.0052a.5423.5423,0,0,1,.54.5436v4.07A.5421.5421,0,0,1,13.7994,5.1626Z" transform="translate(-0.0001 0.0004)"/></svg>