<svg width="28" heught="28" id="features" data-name="features" xmlns="http://www.w3.org/2000/svg" viewBox="0 0 28 28"><defs><style>.cls-1{fill-rule:evenodd;}</style></defs><title>features</title><path class="cls-1" d="M26.5675,28H1.4324A1.4341,1.4341,0,0,1,0,26.5675V22.998a.41.41,0,0,1,.82,0v3.5695a.6127.6127,0,0,0,.6121.6121H26.5675a.6128.6128,0,0,0,.6121-.6121V9.9716a.41.41,0,0,1,.82,0V26.5675A1.434,1.434,0,0,1,26.5675,28ZM7.0288,16.7651l-.0009-.0017-.01-.0206L7.0108,16.73,7.01,16.7269a2.1509,2.1509,0,0,1-.1788-.53H5.6743a1.334,1.334,0,1,1,.0006-.8206H6.8311a2.2588,2.2588,0,0,1,1.0533-1.4832,2.1079,2.1079,0,0,1-.0547-.48,2.13,2.13,0,0,1,.174-.8448H6.538a.41.41,0,0,1-.41-.41V9.74a1.3339,1.3339,0,1,1,.82,0v2.0078h1.661a2.4368,2.4368,0,0,1,1.0123-.519c-.0034-.03-.006-.06-.0082-.09v-.0005l-.0018-.0277,0-.0031L9.61,11.0827l0-.0048-.0009-.0236v-.0066l-.0006-.0231,0-.0068,0-.03A2.3352,2.3352,0,0,1,12.009,8.7305,2.4449,2.4449,0,0,1,14,9.7275a2.4448,2.4448,0,0,1,1.991-.997,2.3352,2.3352,0,0,1,2.401,2.2573,2.1328,2.1328,0,0,1-.0136.2413,2.44,2.44,0,0,1,1.0123.519h1.6611V9.74a1.3339,1.3339,0,1,1,.82,0v2.418a.41.41,0,0,1-.41.41H19.9962a2.1348,2.1348,0,0,1,.174.8448,2.11,2.11,0,0,1-.0547.48,2.3139,2.3139,0,0,1,.8551.9133l.002.0042.0094.0188a2.13,2.13,0,0,1,.1871.5469H22.325a1.3339,1.3339,0,1,1,.0006.82H21.1688a2.2583,2.2583,0,0,1-1.0533,1.4831,2.1138,2.1138,0,0,1,.0547.48,2.136,2.136,0,0,1-.174.8449H21.462a.41.41,0,0,1,.41.41v2.4179a1.3339,1.3339,0,1,1-.82,0V19.8244H19.3907a2.4385,2.4385,0,0,1-1.0126.519c.0045.0393.0079.0786.01.1185v.0023l.0013.0259,0,.0043.0008.0242v.0059l.0006.0234,0,.0069,0,.03a2.3354,2.3354,0,0,1-2.401,2.2576A2.4445,2.4445,0,0,1,14,21.845a2.4446,2.4446,0,0,1-1.991.997,2.3353,2.3353,0,0,1-2.4011-2.2576,2.1328,2.1328,0,0,1,.0136-.241,2.4391,2.4391,0,0,1-1.0123-.519H6.9482v2.0078a1.3339,1.3339,0,1,1-.82,0V19.4143a.41.41,0,0,1,.41-.41H8.0037a2.1357,2.1357,0,0,1-.1643-.6424l0-.0011c-.0024-.0279-.0046-.0558-.0062-.084l0-.0054L7.8316,18.25l0-.0082-.0005-.0189,0-.009,0-.0194,0-.008v-.0271a2.1092,2.1092,0,0,1,.0547-.48A2.31,2.31,0,0,1,7.0288,16.7651ZM4.4054,15.2717a.5136.5136,0,1,0,.5133.5135A.514.514,0,0,0,4.4054,15.2717ZM7.0515,8.4711a.5136.5136,0,1,0-.5135.5136A.5141.5141,0,0,0,7.0515,8.4711Zm14.41.5136a.5136.5136,0,1,0-.5136-.5136A.5142.5142,0,0,0,21.462,8.9847Zm2.1325,7.3141a.5136.5136,0,1,0-.5133-.5136A.5139.5139,0,0,0,23.5945,16.2988Zm-2.6461,6.8026a.5136.5136,0,1,0,.5136-.5135A.5141.5141,0,0,0,20.9484,23.1014ZM14.41,20.5844a1.588,1.588,0,0,0,3.1616,0v-.0165l0-.0057,0-.0108v-.0072l0-.0082a1.3216,1.3216,0,0,0-.0763-.3948l-.0041-.0117a1.5776,1.5776,0,0,0-1.5-.9823.41.41,0,1,1,0-.82A2.4248,2.4248,0,0,1,18.13,19.5587a1.4745,1.4745,0,0,0,1.2207-1.4,1.3139,1.3139,0,0,0-.1088-.5229.41.41,0,0,1,.22-.5415,1.4409,1.4409,0,0,0,.9274-1.3085V15.77l0-.0054,0-.0105v-.0069l0-.006-.0008-.02a1.4487,1.4487,0,0,0-.9259-1.2428l-.0106-.0046a1.7077,1.7077,0,0,0-.6426-.1241.41.41,0,0,1,0-.82,2.54,2.54,0,0,1,.5309.0556,1.3161,1.3161,0,0,0,.0111-.1712,1.3567,1.3567,0,0,0-.37-.9243.4125.4125,0,0,1-.0872-.0868,1.6474,1.6474,0,0,0-1.0328-.4236l-.01-.0005c-.0266-.0012-.0536-.0021-.08-.0021a1.6508,1.6508,0,0,0-1.1288.4318.41.41,0,0,1-.5579-.6015,2.4549,2.4549,0,0,1,1.477-.6421,1.2485,1.2485,0,0,0,.0123-.1763,1.588,1.588,0,0,0-3.1616,0ZM6.538,22.5879a.5135.5135,0,1,0,.5135.5135A.5142.5142,0,0,0,6.538,22.5879Zm1.0732-6.7852,0,.0054,0,.0105v.0068l0,.006.0008.0205a1.4487,1.4487,0,0,0,.9259,1.2427l.0106.0046a1.7062,1.7062,0,0,0,.6426.1242.41.41,0,1,1,0,.82,2.5667,2.5667,0,0,1-.5309-.0555,1.3146,1.3146,0,0,0-.0111.1708v.024l0,.0125,0,.0063.0006.012,0,.0065,0,.0114,0,.0068.0009.0114,0,.006.0011.0122,0,.0057.0012.0123,0,.0057.0014.0128.0007.0043.0014.0136.0005.0041.002.0139.0006.0037.002.0145.0006.0025.0026.016v.0012A1.51,1.51,0,0,0,9.9118,19.567a1.7252,1.7252,0,0,0,.2284.0268l.01.0008q.04.0017.08.0017a1.65,1.65,0,0,0,1.1288-.4315.41.41,0,0,1,.558.6013,2.4542,2.4542,0,0,1-1.4775.6423,1.2912,1.2912,0,0,0-.0119.176,1.5159,1.5159,0,0,0,1.5808,1.4372A1.516,1.516,0,0,0,13.59,20.5844V10.9878A1.5158,1.5158,0,0,0,12.009,9.5509a1.5158,1.5158,0,0,0-1.5808,1.4369l0,.0166V11.01l0,.0108,0,.0071,0,.0085a1.3174,1.3174,0,0,0,.076.3946l.0041.0117a1.5778,1.5778,0,0,0,1.5.9823.41.41,0,1,1,0,.82A2.425,2.425,0,0,1,9.87,12.0138a1.6177,1.6177,0,0,0-.7974.421l-.0257.0257a1.3611,1.3611,0,0,0-.3973.9527,1.3158,1.3158,0,0,0,.1085.5233.41.41,0,0,1-.22.5414,1.4418,1.4418,0,0,0-.9276,1.3082ZM27.59,8.7305a.41.41,0,0,1-.41-.41V4.89H.82V21.36a.41.41,0,0,1-.82,0V1.4324A1.434,1.434,0,0,1,1.4324,0H26.5675A1.4339,1.4339,0,0,1,28,1.4324V8.32A.41.41,0,0,1,27.59,8.7305Zm-.41-7.2981A.6129.6129,0,0,0,26.5675.82H1.4324A.6128.6128,0,0,0,.82,1.4324V4.07H27.18ZM2.7813,2.0351H12.77a.41.41,0,0,1,0,.82H2.7813a.41.41,0,0,1,0-.82Zm17.4812-.1045a.5145.5145,0,1,1-.5144.5146A.5147.5147,0,0,1,20.2625,1.9306Zm2.4667,0a.5145.5145,0,1,1-.5145.5146A.5146.5146,0,0,1,22.7292,1.9306Zm2.4666,0a.5145.5145,0,1,1-.5144.5146A.5146.5146,0,0,1,25.1958,1.9306Z" transform="translate(0.0001)"/></svg>