<svg width="26" height="30" id="final" data-name="final" xmlns="http://www.w3.org/2000/svg" viewBox="0 0 25.7059 29.5142"><defs><style>.cls-1{fill-rule:evenodd;}</style></defs><title>final</title><path class="cls-1" d="M25.23,26.1915H16.1851v3.3323a.4761.4761,0,0,1-.476.4761H.4759A.4761.4761,0,0,1,0,29.5238V4.77a.4761.4761,0,0,1,.476-.4761H9.5206V.9617a.4761.4761,0,0,1,.4761-.476H25.23a.4759.4759,0,0,1,.476.476V25.7155A.4759.4759,0,0,1,25.23,26.1915ZM16.1851,15.7188H22.85V7.15H16.1851ZM.9519,5.246V29.0478H15.233V5.246Zm9.5208-.9521h3.6654l-3.6654-2.443Zm14.281-2.8562H11.5675l4.4058,2.9362a.4758.4758,0,0,1,.2118.3961V6.1982h7.1406a.4759.4759,0,0,1,.476.4759v9.5207a.4761.4761,0,0,1-.476.4761H16.1851v.952h7.6166v.9521H16.1851v.9521h7.6166v.9521H16.1851v.952h7.6166v.9521H16.1851V25.24h8.5686ZM13.8049,27.1436H2.38a.476.476,0,0,1-.4761-.476V23.8113a.4761.4761,0,0,1,.4761-.476H13.8049a.476.476,0,0,1,.476.476v2.8563A.4759.4759,0,0,1,13.8049,27.1436Zm-.476-2.8561H2.8561v1.904H13.3289ZM1.904,21.4312H14.2809v.9521H1.904Zm0-1.9041H14.2809v.9521H1.904Zm11.9009-.9521H2.38a.4761.4761,0,0,1-.4761-.4761V6.6741A.476.476,0,0,1,2.38,6.1982H13.8049a.4758.4758,0,0,1,.476.4759V18.0989A.4759.4759,0,0,1,13.8049,18.575ZM13.3289,7.15H2.8561V17.6229H13.3289ZM4.2842,10.9585h2.513L7.64,8.4278a.476.476,0,0,1,.9044,0l.8436,2.5307h2.513a.476.476,0,0,1,.2975.8454l-2.1212,1.697.8473,2.5412a.476.476,0,0,1-.7492.5235L8.0926,14.9,6.01,16.568a.476.476,0,0,1-.7492-.5236l.8473-2.5411-2.1212-1.697a.476.476,0,0,1,.2975-.8478Zm2.6777,2.005a.4761.4761,0,0,1,.1543.5236l-.4423,1.3272,1.1211-.8978a.4762.4762,0,0,1,.5951,0l1.1211.8978-.4424-1.3238a.4764.4764,0,0,1,.1543-.5237l1.32-1.0563H9.0446a.4763.4763,0,0,1-.4518-.3255l-.5-1.5015-.5,1.5015a.4759.4759,0,0,1-.4517.3255H5.6414Z" transform="translate(0.0001 -0.4857)"/></svg>