<svg width="22" height="22" id="info" data-name="info" xmlns="http://www.w3.org/2000/svg" viewBox="0 0 22.0012 22.0011"><defs><style>.cls-1{fill-rule:evenodd;}</style></defs><title>info</title><path class="cls-1" d="M12.473,14.9465l-.93.4051,1.2094-6.1391a.8831.8831,0,0,0-1.3-.94L9.2123,9.5341a.8832.8832,0,1,0,.867,1.5391l.57-.3212L9.4851,16.6634a.883.883,0,0,0,1.2186.98l2.4745-1.0778a.8831.8831,0,1,0-.7052-1.6193Zm-.5864-8.3228a1.258,1.258,0,1,0-.8929-.3684A1.2653,1.2653,0,0,0,11.8866,6.6237ZM11,0A11.0006,11.0006,0,1,0,22.0008,11,11.0131,11.0131,0,0,0,11,0Zm0,19.9827A8.9821,8.9821,0,1,1,19.9823,11,8.9923,8.9923,0,0,1,11,19.9823Z" transform="translate(0.0004 0.0004)"/></svg>