<svg width="28" height="28" id="instagram" data-name="instagram" xmlns="http://www.w3.org/2000/svg" viewBox="0 0 27.4996 27.4987"><defs><style>.cls-1{fill:#fff;fill-rule:evenodd;}</style></defs><title>inst</title><path class="cls-1" d="M27.9121,19.4076c-.1879,4.0893-2.1107,6.366-4.658,7.3546-1.873.7252-3.702.7219-9,.7219-5.1639,0-8.7789.3471-11.434-2.3063C.2154,22.5732.5133,19.0926.5133,13.7443.5133,8.5184.1754,4.955,2.82,2.3107A8.2186,8.2186,0,0,1,8.59.0866c2.5322-.1121,8.7986-.118,11.3286,0,5.1757.2384,7.7663,3.166,7.9932,7.993C28.0243,10.6116,28.0312,16.8766,27.9121,19.4076Zm-2.3915-5.6645c0-3.6688-.0148-4.1041-.08-5.5537-.2876-6.352-5.0784-5.7125-11.1842-5.7125l-.0518-.0344c-3.6747,0-4.1044.0171-5.564.0685-6.3534.3256-5.7039,4.8846-5.7039,11.2148,0,4.6782-.3494,7.7638,1.5814,9.6852,1.6762,1.6806,3.9737,1.5959,9.7028,1.5959,5.564,0,7.9689.1546,9.7027-1.5788C25.6272,21.7165,25.52,19.4053,25.5206,13.7431ZM21.5894,8.0588A1.6487,1.6487,0,1,1,23.2382,6.41,1.6487,1.6487,0,0,1,21.5894,8.0588ZM14.2538,20.8A7.0557,7.0557,0,1,1,21.31,13.7443,7.0551,7.0551,0,0,1,14.2538,20.8Zm0-11.6352a4.58,4.58,0,1,0,4.58,4.58A4.5788,4.5788,0,0,0,14.2538,9.1646Z" transform="translate(-0.4993 -0.0003)"/></svg>