<svg width="30" height="27" id="notice" data-name="notice" xmlns="http://www.w3.org/2000/svg" viewBox="0 0 29.9988 27.0001"><defs><style>.cls-1{fill:#90c823;fill-rule:evenodd;}</style></defs><title>notice</title><path class="cls-1" d="M25.1152,27H4.8831A4.835,4.835,0,0,1,.6608,24.5865a4.7362,4.7362,0,0,1,0-4.8269L10.7768,2.4133a4.9,4.9,0,0,1,8.4448,0L29.3376,19.76a4.7367,4.7367,0,0,1,0,4.8269A4.8354,4.8354,0,0,1,25.1152,27ZM14.9992,1.387a3.4457,3.4457,0,0,0-3.0089,1.72L1.8743,20.4532a3.3753,3.3753,0,0,0,0,3.44,3.4453,3.4453,0,0,0,3.0089,1.72H25.1151a3.4457,3.4457,0,0,0,3.0089-1.72,3.3758,3.3758,0,0,0,0-3.44L18.008,3.1068A3.4451,3.4451,0,0,0,14.9992,1.387ZM27.2286,20.5316,17.4745,3.8056a2.8729,2.8729,0,0,0-4.9508,0L2.77,20.5316a2.7765,2.7765,0,0,0,0,2.83,2.8346,2.8346,0,0,0,2.4755,1.4147H24.7534a2.8347,2.8347,0,0,0,2.4754-1.4147A2.7772,2.7772,0,0,0,27.2286,20.5316ZM13.2327,9.025a1.7665,1.7665,0,0,1,3.5328,0V14.7a1.7665,1.7665,0,0,1-3.5328,0Zm1.7664,12.5822a1.7921,1.7921,0,1,1,1.81-1.792A1.8031,1.8031,0,0,1,14.9991,21.6072Z" transform="translate(0.0003 0.0002)"/></svg>