<svg width="18" height="21" id="preview" data-name="preview" xmlns="http://www.w3.org/2000/svg" viewBox="0 0 17.9999 20.9999"><defs><style>.cls-1{fill:#fff;fill-rule:evenodd;}</style></defs><title>preview</title><path class="cls-1" d="M13.6757,15.9146a11.8341,11.8341,0,0,1,1.4481,2.4728h1.5476a1.3064,1.3064,0,1,1,0,2.6125H1.3285a1.3064,1.3064,0,1,1,0-2.6124H2.8763a11.8423,11.8423,0,0,1,1.4478-2.4728A8.5824,8.5824,0,0,1,.2316,8.621,8.6957,8.6957,0,0,1,9,0a8.6956,8.6956,0,0,1,8.7684,8.621A8.5821,8.5821,0,0,1,13.6757,15.9146ZM9,2.6706a6.0086,6.0086,0,0,0-6.0521,5.95,6.053,6.053,0,0,0,12.1043,0A6.0088,6.0088,0,0,0,9,2.6706Zm0,9.5538a3.6039,3.6039,0,1,1,3.665-3.6034A3.6387,3.6387,0,0,1,9,12.2244ZM9,5.9973c-.7777,0-1.41.3759-1.41.8378s.6328.8378,1.41.8378,1.4106-.3759,1.4106-.8378S9.7777,5.9973,9,5.9973Z"/></svg>