<svg width="31" height="26" id="twitter" data-name="twitter" xmlns="http://www.w3.org/2000/svg" viewBox="0 0 30.0684 24.7904"><defs><style>.cls-1{fill:#fff;fill-rule:evenodd;}</style></defs><title>twitter</title><path class="cls-1" d="M30.762,3.3362A12.5163,12.5163,0,0,1,27.6792,6.572l.02.8109c0,8.272-6.204,17.8106-17.55,17.8106a17.2851,17.2851,0,0,1-9.4559-2.812,12.7859,12.7859,0,0,0,1.4719.0856,12.2646,12.2646,0,0,0,7.66-2.6779,6.19,6.19,0,0,1-5.7609-4.3484,6.0667,6.0667,0,0,0,2.7864-.1061,6.2449,6.2449,0,0,1-4.9471-6.139V9.1175a6.0973,6.0973,0,0,0,2.7938.7859A6.3289,6.3289,0,0,1,2.7884,1.5475a17.4283,17.4283,0,0,0,12.7137,6.54,6.3891,6.3891,0,0,1-.16-1.4256A6.2154,6.2154,0,0,1,21.5117.4031a6.1078,6.1078,0,0,1,4.5014,1.9777,12.298,12.298,0,0,0,3.9195-1.52A6.2786,6.2786,0,0,1,27.22,4.3223,12.1952,12.1952,0,0,0,30.762,3.3362Z" transform="translate(-0.6936 -0.4031)"/></svg>