<svg width="22" height="20" id="upload" data-name="upload" xmlns="http://www.w3.org/2000/svg" viewBox="0 0 21.9999 20.0001"><defs><style>.cls-1{fill:#b71f2a;fill-rule:evenodd;}</style></defs><title>upload</title><path class="cls-1" d="M4.0853,0H17.9146A4.0513,4.0513,0,0,1,22,4.0073V9.7229a.63.63,0,0,1-1.2605,0V4.0073a2.8019,2.8019,0,0,0-2.8248-2.7708H4.0853A2.8019,2.8019,0,0,0,1.2605,4.0073v5.624a.6217.6217,0,0,1-.63.6183A.6247.6247,0,0,1,0,9.6313V4.0073A4.0513,4.0513,0,0,1,4.0853,0Zm6.4711,4.91A.6209.6209,0,0,1,11,4.7263a.64.64,0,0,1,.4435.1832l4.0106,3.93a.608.608,0,0,1,0,.8747.637.637,0,0,1-.8917,0L11.63,6.8376V19.3817a.63.63,0,0,1-1.2606,0V6.8376L7.4422,9.7137a.6372.6372,0,0,1-.8918,0,.6082.6082,0,0,1,0-.8747Z" transform="translate(0 0.0001)"/></svg>