<svg width="23" height="26" id="youtube" data-name="youtube" xmlns="http://www.w3.org/2000/svg" viewBox="0 0 22.2016 25.2581"><defs><style>.cls-1{fill:#fff;fill-rule:evenodd;}</style></defs><title>youtube</title><path class="cls-1" d="M22.708,23.6182a3.3036,3.3036,0,0,1-.79,1.03,3.785,3.785,0,0,1-1.1535.6952,3.9525,3.9525,0,0,1-1.42.2536H4.4354a3.9018,3.9018,0,0,1-1.403-.2536,3.7582,3.7582,0,0,1-1.1548-.6952,3.4055,3.4055,0,0,1-.7912-1.03A2.8273,2.8273,0,0,1,.7971,22.34V14.894a2.8546,2.8546,0,0,1,.2906-1.2632,3.189,3.189,0,0,1,.7912-1.0342,3.9933,3.9933,0,0,1,1.1548-.696,3.76,3.76,0,0,1,1.4031-.2627H19.3461a3.8253,3.8253,0,0,1,1.4109.2627,3.9824,3.9824,0,0,1,1.1624.696,3.16,3.16,0,0,1,.79,1.0342,2.852,2.852,0,0,1,.2894,1.2632V22.34A2.81,2.81,0,0,1,22.708,23.6182ZM7.2634,14.1307H2.3256v1.1527H3.9081v7.8878H5.434V15.3174H7.2634ZM10.985,16.47H9.4579v4.1923c0,.3044.0024.54.0139.7017.01.1659-.0115.2706-.0665.315a.5826.5826,0,0,1-.3931.3985c-.2112.0823-.375-.0353-.489-.3645a.806.806,0,0,1-.0153-.3293c.0115-.1778.0153-.4064.0153-.69L8.4913,16.47H6.9627l.0358,4.1583c0,.3266-.0077.5986-.0193.8207a1.9744,1.9744,0,0,0,.0193.4991c.0205.1843.0409.3765.064.5868a.6519.6519,0,0,0,.3175.5,1.1329,1.1329,0,0,0,.62.1713,2.0516,2.0516,0,0,0,.7-.1216,2.4578,2.4578,0,0,0,.63-.328,1.4075,1.4075,0,0,0,.4224-.4509l-.0294.83,1.2622.0327Zm4.9341,1.3068a1.5319,1.5319,0,0,0-.6952-1.4244,1.0567,1.0567,0,0,0-.5325-.1359,2.2347,2.2347,0,0,0-1.2637.5253v-2.611H11.8992v8.9726l1.2647-.034.0973-.5592a2.8255,2.8255,0,0,0,1.1063.6455,1.0541,1.0541,0,0,0,.8308-.0941,1.356,1.356,0,0,0,.5313-.6965,3.0485,3.0485,0,0,0,.19-1.1108Zm4.8187,3.0384H19.5932v.7618A.5122.5122,0,0,1,19.4025,22a.7026.7026,0,0,1-.4545.15H18.71A.6419.6419,0,0,1,18.272,22a.5346.5346,0,0,1-.1767-.4235V19.9643h2.6425v-.9331c0-.3488-.0051-.686-.0167-1.0075A3.8954,3.8954,0,0,0,20.64,17.27a1.1215,1.1215,0,0,0-.41-.74,1.85,1.85,0,0,0-.7963-.3789,2.4781,2.4781,0,0,0-.932-.0354,1.8289,1.8289,0,0,0-.8231.3216,1.7456,1.7456,0,0,0-.6465.8323,4.2432,4.2432,0,0,0-.1985,1.46v2.0869a2.3114,2.3114,0,0,0,.6823,1.8819,2.0509,2.0509,0,0,0,1.3276.5254H18.98a2.0328,2.0328,0,0,0,1.38-.6783,1.6444,1.6444,0,0,0,.4493-1.2036C20.7915,21.1823,20.7736,21.0046,20.7378,20.8151Zm-2.4094-3.2683a.7059.7059,0,0,1,.4839-.1777h.0666a.7886.7886,0,0,1,.5069.17.5682.5682,0,0,1,.2074.46l-.0345.8285h-1.462l.0333-.8285A.5876.5876,0,0,1,18.3284,17.5468Zm-4.2516,4.5059a.7881.7881,0,0,1-.4763-.1543.4353.4353,0,0,1-.2034-.3554V17.6068a.4587.4587,0,0,1,.2034-.3632.755.755,0,0,1,.4763-.1621.7471.7471,0,0,1,.4725.1621.4611.4611,0,0,1,.2074.3632V21.543a.4391.4391,0,0,1-.2074.3554A.7825.7825,0,0,1,14.0768,22.0527ZM16.8344,9.45a2.77,2.77,0,0,1-.4481.5247,1.0653,1.0653,0,0,1-.5824.17,1.1094,1.1094,0,0,1-.6324-.17,1.2986,1.2986,0,0,1-.3829-.4581,1.0288,1.0288,0,0,1-.0806-.281,2.2022,2.2022,0,0,0-.0525-.28,2.684,2.684,0,0,1-.032-.46V3.0888h1.43V8.4814a.4942.4942,0,0,0,.1473.3574.55.55,0,0,0,.4007.1522A.5739.5739,0,0,0,17,8.8388a.4694.4694,0,0,0,.17-.3574V3.0888h1.3249V10.01H16.8037Zm-3.6076.0334a1.4916,1.4916,0,0,1-.6452.5593,2.1275,2.1275,0,0,1-.9487.2018,2.7871,2.7871,0,0,1-.996-.17,1.0345,1.0345,0,0,1-.6145-.4894A2.4315,2.4315,0,0,1,9.687,8.82a7.28,7.28,0,0,1-.1-1.39V5.5979a6.1022,6.1022,0,0,1,.1665-1.5421,1.5649,1.5649,0,0,1,.65-.9017,1.8559,1.8559,0,0,1,1.1471-.34,2.3682,2.3682,0,0,1,1.0306.2033,1.4424,1.4424,0,0,1,.68.5939,2.2577,2.2577,0,0,1,.3009.6972,5.409,5.409,0,0,1,.0986,1.1375V7.2249a7.1392,7.1392,0,0,1-.0986,1.3944A2.0421,2.0421,0,0,1,13.2268,9.4838Zm-.9155-4.8026a.702.702,0,0,0-.206-.5155.6462.6462,0,0,0-.4724-.2137.6378.6378,0,0,0-.4724.2137.7048.7048,0,0,0-.21.5155V8.3625a.6846.6846,0,0,0,.2011.4841.6379.6379,0,0,0,.48.21.7.7,0,0,0,.68-.6945ZM7.8089,10.2129H6.1805V4.9007L4.1359.3386H5.9154l1.0178,3.41L7.9459.3386H9.7228L7.8089,4.9007Z" transform="translate(-0.7971 -0.3386)"/></svg>